<svg width="22" height="20" viewBox="0 0 22 20" fill="none" xmlns="http://www.w3.org/2000/svg">
<path fill-rule="evenodd" clip-rule="evenodd" d="M7.47971 9.02694C9.23698 9.02694 10.6663 7.10296 10.6663 4.73743C10.6663 2.37206 9.23693 0.44751 7.47971 0.44751C5.72294 0.44751 4.29348 2.37201 4.29348 4.73743C4.29348 7.10296 5.72294 9.02694 7.47971 9.02694ZM16.9313 13.1999L16.9221 13.1873L16.922 13.1872C16.8601 13.1026 16.8017 13.0229 16.7698 12.954C16.0573 11.4241 14.1042 9.62057 10.9399 9.57571L10.8182 9.57503C7.70256 9.57503 5.76399 11.2831 4.98838 12.8823C4.9616 12.937 4.90267 13.008 4.84024 13.0831C4.76637 13.171 4.69329 13.261 4.63081 13.3588C3.97559 14.3812 3.64153 15.5324 3.69081 16.5999C3.74247 17.7333 4.21554 18.6436 5.02058 19.163C5.34585 19.3725 5.69683 19.4781 6.06507 19.4781C6.82402 19.4781 7.51892 19.0496 8.32404 18.553L8.32518 18.5523C8.83739 18.2356 9.36645 17.9089 9.95411 17.6644C10.4159 17.5117 11.2587 17.5266 11.7135 17.6841C12.284 17.9367 12.7855 18.2677 13.2702 18.5876L13.2783 18.593C14.0253 19.0868 14.7306 19.5529 15.4959 19.5529C15.8244 19.5529 16.1427 19.4659 16.443 19.2948C18.0999 18.3505 18.4155 15.7599 17.147 13.5202C17.0834 13.4078 17.0075 13.3029 16.9313 13.1999ZM17.4418 4.73743C17.4418 7.10296 16.0122 9.02694 14.2558 9.02694C12.4983 9.02694 11.069 7.10296 11.069 4.73743C11.069 2.37201 12.4983 0.44751 14.2558 0.44751C16.0122 0.44751 17.4418 2.37206 17.4418 4.73743ZM19.4886 6.82397C18.0802 6.82397 16.978 8.28905 16.978 10.1594C16.978 12.0289 18.0809 13.4942 19.4886 13.4942C20.8962 13.4942 21.9998 12.0289 21.9998 10.1594C21.9998 8.28911 20.8969 6.82397 19.4886 6.82397ZM2.51089 6.82397C3.91865 6.82397 5.02155 8.28911 5.02155 10.1594C5.02155 12.0289 3.9187 13.4942 2.51089 13.4942C1.10307 13.4942 0 12.0289 0 10.1594C0 8.28911 1.10307 6.82397 2.51089 6.82397Z" fill="white"/>
</svg>
